# xmcd
#
# Track frame offsets:
#	150
#	16082
#	38853
#	58509
#	69807
#	87157
#	114074
#	139743
#	153161
#	181912
#
# Disc length: 2686 seconds
#
# Revision: 1
# Processed by: cddbd v1.5.2PL0 Copyright (c) Steve Scherf et al.
# Submitted via: audiograbber 1.83.01
#
DISCID=6b0a7c0a
DTITLE=Grateful Dead - 80-10-06 Warfield Theatre, San Francisco CA
DYEAR=1900
DGENRE=
TTITLE0=Dire Wolf
TTITLE1=Cassidy
TTITLE2=Jack-A-Roe
TTITLE3=Monkey and The Engineer
TTITLE4=I've Been All Around This World
TTITLE5=Heaven Help The Fool
TTITLE6=China Doll
TTITLE7=On The Road Again
TTITLE8=Bird Song
TTITLE9=Ripple
EXTD=
EXTT0=
EXTT1=
EXTT2=
EXTT3=
EXTT4=
EXTT5=
EXTT6=
EXTT7=
EXTT8=
EXTT9=
PLAYORDER=
